<?xml version="1.0" encoding="UTF-8"?>
<svg width="256px" height="256px" viewBox="0 0 24 24" stroke-width="1.5" fill="none" xmlns="http://www.w3.org/2000/svg" color="#000000">
<path d="M3 13.5C3 18.19 6.81 22 11.5 22C16.19 22 20 18.19 20 13.5C20 8.81 16.19 5 11.5 5C6.81 5 3 8.81 3 13.5Z" stroke="#3b82f6" stroke-width="1.5"/>
<path d="M14 13.5C14 14.8807 12.8807 16 11.5 16C10.1193 16 9 14.8807 9 13.5C9 12.1193 10.1193 11 11.5 11C12.8807 11 14 12.1193 14 13.5Z" stroke="#3b82f6" stroke-width="1.5"/>
<path d="M11.5 5V2" stroke="#3b82f6" stroke-width="1.5" stroke-linecap="round"/>
<path d="M18.5 6.5L20 5" stroke="#3b82f6" stroke-width="1.5" stroke-linecap="round"/>
<path d="M4.5 6.5L3 5" stroke="#3b82f6" stroke-width="1.5" stroke-linecap="round"/>
</svg>